# xmcd
#
# Track frame offsets: 
#        150
#        12679
#        24086
#        35386
#        50227
#        65040
#        81075
#        95319
#        105356
#        116735
#        130460
#        146984
#        162071
#        173594
#        188171
#        198951
#        214191
#        225900
#        241254
#        252935
#        273495
#
# Disc length: 3829 seconds
#
# Revision: 0
# Processed by: cddbd v1.5.2PL0 Copyright (c) Steve Scherf et al.
# Submitted via: ExactAudioCopyFreeDBPlugin 1.0
#
DISCID=220ef315
DTITLE=Various Artist - Classic Northern Soul [CD3]
DYEAR=1900
DGENRE=Northern Soul
TTITLE0=Kiki Dee - On a Magic Carpet Ride
TTITLE1=Ben E. King - I Can't Break the News to Myself
TTITLE2=Sam and Dave - Soothe Me
TTITLE3=Johnnie Taylor - Blues in the Night
TTITLE4=Sister Sledge - Love Don't Go Throgh No Changes In Me
TTITLE5=Manny Corchado - Pow Wow
TTITLE6=Moses Smith - Come On, Let Me Love You
TTITLE7=David and Ruben - I Love Her So Much It Hurts
TTITLE8=The Drifters - You Gotta To Pay Your Dues
TTITLE9=Diana Ross and The Supremes - Stormy
TTITLE10=Bobby Hutton - Lend A Hand
TTITLE11=Bettye Swann - Kiss My Love Goodbye
TTITLE12=Bobby Sheen - Something New To Do
TTITLE13=Lou Ragland - Since You Said You'd Be Mine
TTITLE14=Linda Griner - Goodbye Cruel Love
TTITLE15=Sam Dees - Fragile, Handle With Care
TTITLE16=Esther Phillips - Catch Me I'm Falling
TTITLE17=David Ruffin - Rode By the Place (Where We Used to Stay)
TTITLE18=The Pointer Sisters - Send Him Back
TTITLE19=Prince Phillip Mitchell - I'm So Happy
TTITLE20=Etta James - Do I Make Myself Clear
EXTD=
EXTT0=
EXTT1=
EXTT2=
EXTT3=
EXTT4=
EXTT5=
EXTT6=
EXTT7=
EXTT8=
EXTT9=
EXTT10=
EXTT11=
EXTT12=
EXTT13=
EXTT14=
EXTT15=
EXTT16=
EXTT17=
EXTT18=
EXTT19=
EXTT20=
PLAYORDER=
